<?xml version="1.0" encoding="UTF-8"?>
<svg version="1.1" xmlns="http://www.w3.org/2000/svg" width="268" height="63">
<path d="M0 0 C0 1.65 0 3.3 0 5 C-0.99 4.34 -1.98 3.68 -3 3 C-8.46375413 3.2061794 -11.84390774 4.4629002 -16 8 C-20.69228478 13.73371456 -23.53736957 20.0611766 -26 27 C-25.54109375 26.566875 -25.0821875 26.13375 -24.609375 25.6875 C-23.99578125 25.130625 -23.3821875 24.57375 -22.75 24 C-21.84507812 23.1646875 -21.84507812 23.1646875 -20.921875 22.3125 C-19 21 -19 21 -15 21 C-15.62816498 24.94949704 -16.8645529 28.19892028 -18.5625 31.8125 C-19.24505859 33.27623047 -19.24505859 33.27623047 -19.94140625 34.76953125 C-20.46541016 35.87361328 -20.46541016 35.87361328 -21 37 C-16.04300149 32.87989734 -11.70242252 28.69691033 -7.73828125 23.6015625 C-5.5704735 21.60425648 -3.88463503 21.34399396 -1 21 C-1.51742823 26.30363934 -3.32610623 29.51475883 -6 34 C-6 34.66 -6 35.32 -6 36 C-1.75164507 32.13785916 1.13533898 27.8922 4.15625 23.01171875 C6 21 6 21 8.71875 20.70703125 C9.4715625 20.80371094 10.224375 20.90039062 11 21 C10.66226563 21.49628906 10.32453125 21.99257813 9.9765625 22.50390625 C7.05398512 26.95534637 5.18978233 30.80822254 4 36 C9.70088734 32.93029143 12.92130017 28.52124487 16.75390625 23.36328125 C19.22934706 20.75868701 20.478462 20.26612677 24 20 C24 20.99 24 21.98 24 23 C24.99 22.34 25.98 21.68 27 21 C29.6875 20.875 29.6875 20.875 32 21 C31.39254603 25.85963179 29.27241033 29.7405518 27 34 C27.33 34.33 27.66 34.66 28 35 C29.62748003 33.23139162 31.25203457 31.46024324 32.875 29.6875 C33.33519531 29.18798828 33.79539062 28.68847656 34.26953125 28.17382812 C36.38606608 25.85790957 38.25526383 23.61710426 40 21 C42.625 20.3125 42.625 20.3125 45 20 C45 20.66 45 21.32 45 22 C47.31 21.67 49.62 21.34 52 21 C52 22.98 52 24.96 52 27 C50.515 27.495 50.515 27.495 49 28 C49 26.68 49 25.36 49 24 C42.87083517 26.80190392 40.28600309 32.06056437 37.6875 38 C37.460625 38.66 37.23375 39.32 37 40 C35.02 39.505 35.02 39.505 33 39 C33.66 36.69 34.32 34.38 35 32 C34.56429687 32.49371094 34.12859375 32.98742188 33.6796875 33.49609375 C28.75471698 38.7941681 28.75471698 38.7941681 24.5625 39.9375 C23.716875 39.958125 22.87125 39.97875 22 40 C21.43438854 34.34388537 23.28608722 30.77357872 26 26 C21.41837974 30.19981857 18.78586152 34.42827696 16 40 C14.68 40 13.36 40 12 40 C12.99 36.7 13.98 33.4 15 30 C13.9275 31.27875 12.855 32.5575 11.75 33.875 C9.38033982 36.70036406 7.47803827 38.66889893 4 40 C1.01029519 39.64827002 0.17288535 39.17288535 -2 37 C-2.928125 37.515625 -3.85625 38.03125 -4.8125 38.5625 C-8 40 -8 40 -11 39 C-10.46228519 35.62007831 -9.85696068 32.31262111 -9 29 C-9.87011719 30.06541016 -9.87011719 30.06541016 -10.7578125 31.15234375 C-11.53898437 32.07144531 -12.32015625 32.99054687 -13.125 33.9375 C-13.89070313 34.85402344 -14.65640625 35.77054688 -15.4453125 36.71484375 C-18.37050306 39.33141329 -20.14168466 39.73718722 -24 40 C-25.07010304 37.23556715 -25.16283213 35.46148633 -24.17578125 32.6640625 C-23.16488321 30.41525773 -22.11596524 28.19840363 -21 26 C-25.04165813 30.47307108 -28.80173015 34.88276824 -32 40 C-35 39 -35 39 -36 38 C-36.66 38.66 -37.32 39.32 -38 40 C-41.43387091 40.45784945 -43.41808914 40.3055032 -46.5 38.6875 C-50.2556629 34.65016238 -52.53947481 29.90413956 -55 25 C-55.49628906 25.98742187 -55.99257812 26.97484375 -56.50390625 27.9921875 C-57.18889539 29.28709848 -57.87516119 30.58133469 -58.5625 31.875 C-59.04686523 32.85146484 -59.04686523 32.85146484 -59.54101562 33.84765625 C-62.09123417 38.55948861 -62.09123417 38.55948861 -64.83935547 39.89160156 C-66.77734375 40.4453125 -66.77734375 40.4453125 -70 41 C-68.72034105 38.3899705 -67.37092722 35.85367581 -65.8984375 33.34765625 C-65.49415527 32.65921631 -65.08987305 31.97077637 -64.67333984 31.26147461 C-64.2448877 30.53581299 -63.81643555 29.81015137 -63.375 29.0625 C-62.71491943 27.94210327 -62.71491943 27.94210327 -62.04150391 26.79907227 C-58.11072232 20.147362 -54.08362149 13.55888927 -50 7 C-51.98 7.33 -53.96 7.66 -56 8 C-56.33 9.65 -56.66 11.3 -57 13 C-57.99 13 -58.98 13 -60 13 C-61 12 -61 12 -61.25 9.0625 C-61.1675 8.051875 -61.085 7.04125 -61 6 C-58.03651571 4.0243438 -57.31979627 3.73623141 -53.98828125 3.5859375 C-53.23095703 3.54726562 -52.47363281 3.50859375 -51.69335938 3.46875 C-50.90767578 3.4378125 -50.12199219 3.406875 -49.3125 3.375 C-48.51521484 3.33632812 -47.71792969 3.29765625 -46.89648438 3.2578125 C-44.93136525 3.16367506 -42.9657146 3.08075368 -41 3 C-41 3.99 -41 4.98 -41 6 C-41.78375 6.061875 -42.5675 6.12375 -43.375 6.1875 C-44.24125 6.455625 -45.1075 6.72375 -46 7 C-47.22772827 9.23259665 -47.22772827 9.23259665 -48 12 C-48.9831669 14.00832837 -49.98132217 16.00944845 -51 18 C-50.01 17.32453125 -49.02 16.6490625 -48 15.953125 C-46.66683683 15.05183159 -45.3334938 14.15080416 -44 13.25 C-43.35160156 12.8065625 -42.70320313 12.363125 -42.03515625 11.90625 C-29.13083086 3.21818934 -29.13083086 3.21818934 -21 4 C-20.29875 4.2475 -19.5975 4.495 -18.875 4.75 C-16.75117535 5.25502827 -16.75117535 5.25502827 -14.5625 3.1875 C-13.716875 2.465625 -12.87125 1.74375 -12 1 C-7.73302855 -1.35806317 -4.7183527 -0.9251672 0 0 Z M-52 21 C-50.31008277 26.60636049 -48.00284576 30.7329077 -44 35 C-41.32852264 36.54451195 -41.32852264 36.54451195 -39 37 C-30.94723197 31.68859981 -27.73132477 24.26847157 -23.87255859 15.78808594 C-23 14 -23 14 -21.20703125 11.1953125 C-20.80871094 10.47085937 -20.41039062 9.74640625 -20 9 C-20.33 8.01 -20.66 7.02 -21 6 C-31.85369939 6 -43.36774752 15.09648387 -52 21 Z " fill="#CC9F00" transform="translate(196,1)"/>
<path d="M0 0 C1.11375 0.3403125 1.11375 0.3403125 2.25 0.6875 C2.25 1.6775 2.25 2.6675 2.25 3.6875 C1.3425 3.56375 0.435 3.44 -0.5 3.3125 C-4.0076877 3.34122919 -4.0076877 3.34122919 -6.125 6.5 C-7.97709372 9.53665008 -7.97709372 9.53665008 -7.75 12.6875 C-7.0075 12.0275 -6.265 11.3675 -5.5 10.6875 C-2.75 8.6875 -2.75 8.6875 1.25 8.6875 C1.00148273 15.6459837 -0.93950477 19.6446137 -5.75 24.6875 C-8.17508756 26.47744558 -9.73341898 27.57678326 -12.72265625 27.90234375 C-15.01283744 28.54814587 -15.01283744 28.54814587 -16.20703125 31.1640625 C-16.87798828 32.72253906 -16.87798828 32.72253906 -17.5625 34.3125 C-20.62743881 40.81388534 -23.98032913 45.57280658 -30.3125 49.125 C-34.5945438 50.11316395 -37.56127247 50.26865568 -41.5625 48.3125 C-43.75 46.6875 -43.75 46.6875 -44.75 44.6875 C-44.789992 42.68789988 -44.79346799 40.68702758 -44.75 38.6875 C-44.09 38.6875 -43.43 38.6875 -42.75 38.6875 C-42.5025 39.656875 -42.255 40.62625 -42 41.625 C-41.5875 42.635625 -41.175 43.64625 -40.75 44.6875 C-37.12383356 46.1656825 -34.41387336 45.35920982 -30.8359375 43.8828125 C-23.76007785 39.82810641 -19.70868015 32.02284525 -16.75 24.6875 C-16.75 24.0275 -16.75 23.3675 -16.75 22.6875 C-18.5753125 23.368125 -18.5753125 23.368125 -20.4375 24.0625 C-21.53384766 24.46855469 -21.53384766 24.46855469 -22.65234375 24.8828125 C-24.2909532 25.51140383 -25.90226975 26.21125898 -27.5 26.9375 C-30.09109369 27.8011979 -31.24681971 27.72329874 -33.75 26.6875 C-34.41 26.0275 -35.07 25.3675 -35.75 24.6875 C-36.141875 25.1825 -36.53375 25.6775 -36.9375 26.1875 C-39.30091715 28.14343143 -40.76435003 27.92957973 -43.75 27.6875 C-44.31561146 22.03138537 -42.46391278 18.46107872 -39.75 13.6875 C-44.34216906 17.75484974 -46.9667907 22.25135928 -49.75 27.6875 C-51.07 27.3575 -52.39 27.0275 -53.75 26.6875 C-52.76 23.7175 -51.77 20.7475 -50.75 17.6875 C-51.74 18.6775 -52.73 19.6675 -53.75 20.6875 C-52.82872717 15.8069475 -50.14246277 12.23416562 -46.75 8.6875 C-43.875 7.6875 -43.875 7.6875 -41.75 7.6875 C-42.08 9.0075 -42.41 10.3275 -42.75 11.6875 C-42.193125 11.1925 -41.63625 10.6975 -41.0625 10.1875 C-38.36837017 8.43995633 -36.89624993 8.42531251 -33.75 8.6875 C-34.35745397 13.54713179 -36.47758967 17.4280518 -38.75 21.6875 C-38.42 22.0175 -38.09 22.3475 -37.75 22.6875 C-37.00234375 21.84445313 -36.2546875 21.00140625 -35.484375 20.1328125 C-34.48990084 19.02575636 -33.49509151 17.91900125 -32.5 16.8125 C-32.00886719 16.25691406 -31.51773438 15.70132812 -31.01171875 15.12890625 C-26.26910923 9.88041838 -26.26910923 9.88041838 -22.75 8.6875 C-19.5 8.5625 -19.5 8.5625 -16.75 8.6875 C-16.4545561 13.71004631 -16.76485372 16.58292386 -19.75 20.6875 C-14.65171563 17.8224078 -12.43912743 15.03399203 -10.125 9.625 C-5.63333408 -0.6401516 -5.63333408 -0.6401516 0 0 Z M-24.1875 12.078125 C-24.703125 12.69171875 -25.21875 13.3053125 -25.75 13.9375 C-26.265625 14.54078125 -26.78125 15.1440625 -27.3125 15.765625 C-29.60184423 18.8263787 -30.75 20.82048289 -30.75 24.6875 C-28.40851769 24.80963894 -28.40851769 24.80963894 -25.75 23.6875 C-22.86593033 20.35133293 -20.89683841 17.09714878 -20.4375 12.6875 C-20.540625 12.0275 -20.64375 11.3675 -20.75 10.6875 C-22.84376748 10.45573624 -22.84376748 10.45573624 -24.1875 12.078125 Z M-3.75 11.6875 C-10.4193465 17.60617652 -10.4193465 17.60617652 -13.75 25.6875 C-9.56860131 24.36743386 -7.74929566 22.91991386 -5.375 19.25 C-4.85164063 18.46753906 -4.32828125 17.68507813 -3.7890625 16.87890625 C-2.39637354 14.59474293 -2.39637354 14.59474293 -3.75 11.6875 Z " fill="#CC9F00" transform="translate(116.75,13.3125)"/>
<path d="M0 0 C0 0.99 0 1.98 0 3 C0.99 2.34 1.98 1.68 3 1 C5.6875 0.875 5.6875 0.875 8 1 C7.39254603 5.85963179 5.27241033 9.7405518 3 14 C3.33 14.33 3.66 14.66 4 15 C4.84304687 14.07316406 5.68609375 13.14632812 6.5546875 12.19140625 C7.66130447 10.98163007 8.76808373 9.77200233 9.875 8.5625 C10.43058594 7.95083984 10.98617187 7.33917969 11.55859375 6.70898438 C12.09355469 6.12568359 12.62851562 5.54238281 13.1796875 4.94140625 C13.67194824 4.40201416 14.16420898 3.86262207 14.67138672 3.30688477 C16.67016618 1.34079391 17.77914201 1.00829047 20.6015625 0.90234375 C22.09816406 0.91974609 22.09816406 0.91974609 23.625 0.9375 C25.12933594 0.95103516 25.12933594 0.95103516 26.6640625 0.96484375 C27.43492188 0.97644531 28.20578125 0.98804687 29 1 C29 1.66 29 2.32 29 3 C28.39188477 3.59143799 27.78376953 4.18287598 27.15722656 4.79223633 C24.79467129 7.21013893 23.78640045 9.22044681 22.484375 12.32421875 C21.81341797 13.86819336 21.81341797 13.86819336 21.12890625 15.44335938 C20.21905387 17.58396109 19.31527042 19.72715388 18.41796875 21.87304688 C15.14033244 29.37612602 11.17576854 37.53010587 3.44042969 41.22143555 C-0.78907373 42.57076392 -3.8036439 42.5848852 -7.8125 40.625 C-10 39 -10 39 -11 37 C-11.039992 35.00039988 -11.04346799 32.99952758 -11 31 C-9 34 -9 34 -7 37 C-3.19170749 38.51699619 -0.66412377 37.64130157 2.984375 36.12109375 C10.43436111 31.97739992 13.58354382 23.37809154 17 16 C16.01 16.66 15.02 17.32 14 18 C12.01200182 18.70164642 10.01301483 19.37372872 8 20 C7.34 19.01 6.68 18.02 6 17 C5.4225 17.495 4.845 17.99 4.25 18.5 C2 20 2 20 -2 20 C-2.56561146 14.34388537 -0.71391278 10.77357872 2 6 C-2.58162026 10.19981857 -5.21413848 14.42827696 -8 20 C-9.32 20 -10.64 20 -12 20 C-11.01 16.7 -10.02 13.4 -9 10 C-9.99 10.99 -10.98 11.98 -12 13 C-11.3827828 9.65046766 -10.16796835 7.52121176 -8.125 4.8125 C-7.61195312 4.11769531 -7.09890625 3.42289063 -6.5703125 2.70703125 C-4.57872499 0.54204681 -2.93172061 0 0 0 Z M17.46484375 4.3203125 C14.2973767 8.0629462 12.18745191 11.13144718 11 16 C14.08859947 14.64664405 16.007964 13.19113751 18.1875 10.625 C18.69667969 10.03976563 19.20585938 9.45453125 19.73046875 8.8515625 C21.07559273 6.88975091 21.57514402 5.323911 22 3 C19.04161167 2.67396928 19.04161167 2.67396928 17.46484375 4.3203125 Z " fill="#CC9F00" transform="translate(37,21)"/>
<path d="M0 0 C0.91120605 0.01047363 1.82241211 0.02094727 2.76123047 0.03173828 C3.74736328 0.03818359 4.73349609 0.04462891 5.74951172 0.05126953 C7.29832031 0.07640625 7.29832031 0.07640625 8.87841797 0.10205078 C9.91869141 0.11107422 10.95896484 0.12009766 12.03076172 0.12939453 C14.60520889 0.15301331 17.17920009 0.18594929 19.75341797 0.22705078 C19.42341797 0.88705078 19.09341797 1.54705078 18.75341797 2.22705078 C17.11373047 2.62923828 17.11373047 2.62923828 15.44091797 3.03955078 C10.61635476 4.59322368 8.98068203 6.84667507 6.67456055 11.31958008 C5.1321811 14.58806107 3.66100241 17.88585238 2.19677734 21.18994141 C-0.37511192 26.82848546 -3.0059977 31.85062227 -8.12158203 35.60205078 C-11.32992855 36.54568211 -13.92503948 36.58293034 -17.24658203 36.22705078 C-19.68408203 34.60205078 -19.68408203 34.60205078 -21.24658203 32.22705078 C-21.49658203 28.97705078 -21.49658203 28.97705078 -21.24658203 26.22705078 C-19.24658203 28.22705078 -19.24658203 28.22705078 -18.24658203 31.22705078 C-14.95310486 32.38945449 -13.58978297 32.38372947 -10.37158203 30.91455078 C-2.70781707 25.13242632 1.32840658 15.47798826 5.37060547 7.03564453 C6.75341797 4.22705078 6.75341797 4.22705078 7.75341797 3.22705078 C5.44341797 3.55705078 3.13341797 3.88705078 0.75341797 4.22705078 C-0.40469591 7.17434615 -0.40469591 7.17434615 -0.24658203 10.22705078 C-0.90658203 10.22705078 -1.56658203 10.22705078 -2.24658203 10.22705078 C-4.39573988 7.00331401 -4.62945006 5.96001404 -4.24658203 2.22705078 C-2.24658203 0.22705078 -2.24658203 0.22705078 0 0 Z " fill="#CC9F00" transform="translate(21.24658203125,4.77294921875)"/>
<path d="M0 0 C0 0.66 0 1.32 0 2 C-0.66 2 -1.32 2 -2 2 C-2.268125 2.70125 -2.53625 3.4025 -2.8125 4.125 C-4 7 -4 7 -5.625 10.1875 C-7.14640338 12.77769146 -7.14640338 12.77769146 -7 15 C-6.236875 14.21625 -5.47375 13.4325 -4.6875 12.625 C-2 10 -2 10 1 8 C0.14271367 12.64951761 -2.26094109 15.22364132 -6 18 C-9.375 18.875 -9.375 18.875 -12 19 C-12.33 17.68 -12.66 16.36 -13 15 C-13.391875 15.474375 -13.78375 15.94875 -14.1875 16.4375 C-16.40808374 18.35179633 -18.13375709 18.61266988 -21 19 C-21.95435272 16.43332469 -22.07808771 15.23892508 -21.21484375 12.59765625 C-15.98682526 2.22155839 -11.90583509 -0.9533142 0 0 Z M-11.4375 4.1875 C-13.75104354 6.7267551 -15.53259788 8.90215107 -17 12 C-16.67 12.99 -16.34 13.98 -16 15 C-14.87187697 13.89902432 -13.74762189 12.79408444 -12.625 11.6875 C-11.99851563 11.07261719 -11.37203125 10.45773438 -10.7265625 9.82421875 C-8.21385547 7.16939028 -7 5.72782094 -7 2 C-9.29777643 1.77736342 -9.29777643 1.77736342 -11.4375 4.1875 Z " fill="#CC9F00" transform="translate(266,22)"/>
</svg>
